<mxfile host="app.diagrams.net" agent="Mozilla/5.0 (X11; Linux x86_64; rv:135.0) Gecko/20100101 Firefox/135.0" version="26.0.16">
  <diagram name="第 1 页" id="K-CsOiHEIw8AEkNvf2WS">
    <mxGraphModel dx="1414" dy="-434" grid="1" gridSize="10" guides="1" tooltips="1" connect="1" arrows="1" fold="1" page="1" pageScale="1" pageWidth="827" pageHeight="1169" math="0" shadow="0">
      <root>
        <mxCell id="0" />
        <mxCell id="1" parent="0" />
        <mxCell id="lbyOYwHaOv881au3Fpvr-9" value="" style="rounded=0;whiteSpace=wrap;html=1;fillColor=#99CCFF;strokeColor=#6c8ebf;shadow=1;" parent="1" vertex="1">
          <mxGeometry x="30" y="1345" width="180" height="130" as="geometry" />
        </mxCell>
        <mxCell id="lbyOYwHaOv881au3Fpvr-10" value="" style="rounded=0;whiteSpace=wrap;html=1;fillColor=#f8cecc;strokeColor=#b85450;shadow=1;" parent="1" vertex="1">
          <mxGeometry x="300" y="1200" width="150" height="180" as="geometry" />
        </mxCell>
        <mxCell id="lbyOYwHaOv881au3Fpvr-11" value="" style="shape=image;verticalLabelPosition=bottom;labelBackgroundColor=default;verticalAlign=top;aspect=fixed;imageAspect=0;editableCssRules=.*;image=data:image/svg+xml,PHN2ZyBoZWlnaHQ9IjE5OS45OTYwMTg0MDk3MjkiIHdpZHRoPSIxMzkuMTI0NzE1MzI4MjE2NTUiIHhtbG5zOnhsaW5rPSJodHRwOi8vd3d3LnczLm9yZy8xOTk5L3hsaW5rIiB4bWxucz0iaHR0cDovL3d3dy53My5vcmcvMjAwMC9zdmciIHZlcnNpb249IjEuMSIgdmlld0JveD0iMTU1LjgxMzI0NzY4MDY2NDA2IDAgNzEyLjMxODU0MjQ4MDQ2ODggMTAyMy45Nzk2MTQyNTc4MTI1IiBjbGFzcz0iaWNvbiI+PHBhdGggZmlsbD0iI0FCRDFGRiIgZD0iTTgyNi44MDExMSA3NTYuOTY5NjQ0YzAgMTgxLjUzNzQ1OC0xMjEuMDE4MTgyIDIyNC43ODI5NzItMTc5LjM5ODYwNyAyMjQuNzgyOTcyaC0xMzMuMzYyNDAzYy01OC4zNjAwNTYgMC0xNzkuMzk4NjA4LTQzLjI0NTUxNC0xNzkuMzk4NjA4LTIyNC43ODI5NzJIODI2LjgwMTExeiIvPjxwYXRoIGZpbGw9IiMyOTI5MjkiIGQ9Ik02MDAuNzM0ODI4IDEwMjMuOTc5NjNoLTE3Ny41NjUzMDdDMzMwLjY4OTcxMiAxMDIzLjk3OTYzIDE1NS44MTMyNDUgOTU1LjQzNDU3MyAxNTUuODEzMjQ1IDY5Ni4xNDQ4MThjMC0xNTkuNTM3ODU2IDc2Ljg3NjM4OC0yNTYuNDk5MDY1IDEzOC42MzgyMzMtMzM0LjQxNDMyMyAzNy4xNzUyNTQtNDYuODkxNzQ1IDY5LjI3ODM3Ny04Ny40MDc2NzkgODAuOTUwMzg4LTEzMy4wNTY4NTMgMzAuNjc3MjIzLTEyMC4xNDIyNzItNi4yOTQzMzEtMTg0LjUxMTQ3OC02LjY4MTM2LTE4NS4xMjI1NzhMMzQxLjczMDI1MyAwaDM0MC40MjM0NzNsLTI2Ljk2OTg4MiA0My41MzA2OTRjLTEuMzg1MTYgMi4zNjI5Mi0zNy4yOTc0NzQgNjUuMTAyNTI2LTYuNjgxMzYxIDE4NS4xMjI1NzggMTEuNjUxNjQxIDQ1LjY2OTU0NCA0My43NTQ3NjQgODYuMTY1MTA4IDgwLjk1MDM4OCAxMzMuMDU2ODUzIDYxLjc4MjIxNiA3Ny45MTUyNTggMTM4LjY3ODk3NCAxNzQuODk2ODM3IDEzOC42Nzg5NzMgMzM0LjQxNDMyMy0wLjAyMDM3IDI1OS4zMTAxMjUtMTc0LjkxNzIwNyAzMjcuODU1MTgyLTI2Ny4zOTcwMTYgMzI3Ljg1NTE4MnpNNDM0LjQzNDEzMiA1Ny4wMzYwMDZjMTAuNDA5MDcxIDM4LjIzNDQ5NCAxNy44NjQ0OTIgMTAwLjk3NDEtMy43Njg0NSAxODUuNzMzNjc4LTE0LjY4Njc3MSA1Ny40NjM3NzYtNTIuMDA0NjE1IDEwNC41Mzg4NS05MS41MjI0MTkgMTU0LjM4NDI0NS02Mi4wODc3NjYgNzguMzIyNjU4LTEyNi4yOTQwMTIgMTU5LjMzNDE1Ni0xMjYuMjk0MDEzIDI5OC45OTA4ODkgMCAyNjcuNzAyNTY2IDIwMS43NDQ1IDI3MC43NTgwNjYgMjEwLjM0MDY0MSAyNzAuNzU4MDY2aDE3Ny41NjUzMDdjOC41OTYxNDEgMCAyMTAuMzIwMjcxLTMuMDU1NSAyMTAuMzIwMjcxLTI3MC43NTgwNjYgMC0xMzkuNjU2NzM0LTY0LjIwNjI0Ni0yMjAuNjY4MjMyLTEyNi4zMTQzODMtMjk4Ljk5MDg4OS0zOS40OTc0MzQtNDkuODQ1Mzk1LTc2LjgzNTY0OC05Ni45MjA0NjktOTEuNTAyMDQ5LTE1NC4zODQyNDUtMjEuNjMyOTQyLTg0Ljc3OTk0OC0xNC4xNzc1MjEtMTQ3LjQ5OTE4NC0zLjc2ODQ1LTE4NS43MzM2NzhoLTE1NS4wNTY0NTV6Ii8+PHBhdGggZmlsbD0iIzI5MjkyOSIgZD0iTTU3OC42MzMzNzYgOTUyLjk0OTQzM0g0NDUuMjcwOTczYy03MS45MDYxMDcgMC0yMDcuOTE2NjEtNTIuOTQxNjM1LTIwNy45MTY2MS0yNTMuMjgwNjA1di0yOC41MTgwMDJoNTQ5LjE3NTI1M3YyOC41MTgwMDJjMC4wMjAzNyAyMDAuMzU5MzQtMTM1Ljk2OTc2MyAyNTMuMjgwNjA1LTIwNy44OTYyNCAyNTMuMjgwNjA1ek0yOTUuNTEwNzE4IDcyOC4yMDcyMDFjMTMuNDQ0MjAxIDE2NS43MDk5NjYgMTQzLjkxNDA2NCAxNjcuNjg1ODU2IDE0OS43NjAyNTUgMTY3LjY4NTg1NmgxMzMuMzYyNDAzYzUuODQ2MTkxIDAgMTM2LjMxNjA1My0xLjk5NjI2IDE0OS43NjAyNTUtMTY3LjY4NTg1NkgyOTUuNTEwNzE4eiIvPjwvc3ZnPg==;" parent="1" vertex="1">
          <mxGeometry x="320" y="1210.2299999999998" width="24.71" height="35.56" as="geometry" />
        </mxCell>
        <mxCell id="lbyOYwHaOv881au3Fpvr-13" value="&lt;b&gt;&lt;font style=&quot;font-size: 14px;&quot;&gt;知识蒸馏&lt;/font&gt;&lt;/b&gt;" style="text;html=1;align=center;verticalAlign=middle;whiteSpace=wrap;rounded=0;" parent="1" vertex="1">
          <mxGeometry x="360" y="1213.01" width="60" height="30" as="geometry" />
        </mxCell>
        <mxCell id="lbyOYwHaOv881au3Fpvr-14" value="" style="rounded=0;whiteSpace=wrap;html=1;fillColor=#dae8fc;strokeColor=#6c8ebf;shadow=1;" parent="1" vertex="1">
          <mxGeometry x="540" y="1350" width="160" height="110" as="geometry" />
        </mxCell>
        <mxCell id="lbyOYwHaOv881au3Fpvr-16" value="" style="shape=flexArrow;endArrow=classic;html=1;rounded=0;" parent="1" edge="1">
          <mxGeometry width="50" height="50" relative="1" as="geometry">
            <mxPoint x="230" y="1397.49" as="sourcePoint" />
            <mxPoint x="530" y="1397" as="targetPoint" />
          </mxGeometry>
        </mxCell>
        <mxCell id="lbyOYwHaOv881au3Fpvr-21" value="" style="rounded=0;whiteSpace=wrap;html=1;fillColor=#ffe6cc;strokeColor=#d79b00;" parent="1" vertex="1">
          <mxGeometry x="310" y="1256.94" width="130" height="43.06" as="geometry" />
        </mxCell>
        <mxCell id="lbyOYwHaOv881au3Fpvr-22" value="" style="rounded=0;whiteSpace=wrap;html=1;fillColor=#ffe6cc;strokeColor=#d79b00;" parent="1" vertex="1">
          <mxGeometry x="310" y="1310" width="130" height="50" as="geometry" />
        </mxCell>
        <mxCell id="lbyOYwHaOv881au3Fpvr-24" value="&lt;div&gt;&lt;b&gt;&lt;span style=&quot;color: rgb(0, 0, 0);&quot;&gt;&lt;font style=&quot;font-size: 14px;&quot;&gt;参数更大的模型&lt;/font&gt;&lt;/span&gt;&lt;br&gt;&lt;/b&gt;&lt;/div&gt;&lt;div&gt;&lt;b&gt;(例如:DeepSeek-671B满血版）&lt;/b&gt;&lt;/div&gt;" style="text;html=1;align=center;verticalAlign=middle;whiteSpace=wrap;rounded=0;" parent="1" vertex="1">
          <mxGeometry x="45" y="1360" width="160" height="40" as="geometry" />
        </mxCell>
        <mxCell id="lbyOYwHaOv881au3Fpvr-25" value="" style="shape=image;verticalLabelPosition=bottom;labelBackgroundColor=default;verticalAlign=top;aspect=fixed;imageAspect=0;editableCssRules=.*;image=data:image/svg+xml,PHN2ZyBoZWlnaHQ9IjE0NS4yNjI2NTg1OTYwMzg4MiIgd2lkdGg9IjE5My4zNzE4OTE5NzU0MDI4MyIgeG1sbnM6eGxpbms9Imh0dHA6Ly93d3cudzMub3JnLzE5OTkveGxpbmsiIHhtbG5zPSJodHRwOi8vd3d3LnczLm9yZy8yMDAwL3N2ZyIgdmVyc2lvbj0iMS4xIiB2aWV3Qm94PSIyMC40ODIxMjA1MTM5MTYwMTYgMTQzLjM2NDYyNDAyMzQzNzUgOTkwLjA2NDA4NjkxNDA2MjUgNzQzLjc0NDgxMjAxMTcxODgiIGNsYXNzPSJpY29uIj48cGF0aCBmaWxsPSIjNEQ2QkZFIiBkPSJNMTAwMC4xNCAyMDUuNzg0Yy0xMC40ODQtNS4yNDQtMTUuMDEyIDQuNzUyLTIxLjEzNiA5LjgyOC0yLjA4OCAxLjY0LTMuODY4IDMuNzY4LTUuNjUyIDUuNzM2LTE1LjMyIDE2LjcxMi0zMy4yMTYgMjcuNjg4LTU2LjYyOCAyNi4zNzYtMzQuMi0xLjk2NC02My40MDQgOS4wMTItODkuMjA4IDM1LjcyLTUuNDg4LTMyLjkzMi0yMy43MTYtNTIuNTkyLTUxLjQ2OC02NS4yMDgtMTQuNTQtNi41NTYtMjkuMjA0LTEzLjEwOC0zOS4zODQtMjcuMzYtNy4wODQtMTAuMTYtOS4wMDgtMjEuNDY0LTEyLjU3Mi0zMi42MDgtMi4yNTYtNi43MTYtNC41MDgtMTMuNi0xMi4wODQtMTQuNzQ0LTguMjUyLTEuMzEyLTExLjQ2OCA1LjczNi0xNC43MDQgMTEuNjMyLTEyLjkwNCAyNC4wODQtMTcuOTIgNTAuNjI4LTE3LjQwOCA3Ny40OTYgMS4xMDQgNjAuNDYgMjYuMTMyIDEwOC42MjggNzUuODE2IDE0Mi44NzIgNS42NTIgMy45MzIgNy4xMDggNy44NjQgNS4zMjQgMTMuNi0zLjM4IDExLjc5Mi03LjQzMiAyMy4yNi0xMC45NzYgMzUuMDYtMi4yNTIgNy41MzYtNS42MzIgOS4xNzItMTMuNTYgNS44OTYtMjcuMjU2LTExLjYzMi01MC44MDgtMjguODM2LTcxLjYzNi00OS42NC0zNS4zMjgtMzQuOS02Ny4yOC03My40MDQtMTA3LjExMi0xMDMuNTUyYTQ3My4wMTIgNDczLjAxMiAwIDAgMC0yOC40MDQtMTkuODI0Yy00MC42NTYtNDAuMzA0IDUuMzI0LTczLjQgMTUuOTcyLTc3LjMzMiAxMS4xMi00LjA5NiAzLjg3Mi0xOC4xODQtMzIuMTEyLTE4LjAyLTM1Ljk4NCAwLjE2LTY4Ljg5NiAxMi40NTItMTEwLjgzNiAyOC44MzYtNi4xNDQgMi40NTYtMTIuNiA0LjI1Ni0xOS4xOTIgNS43MzItMzguMDkyLTcuMzcyLTc3LjYyLTkuMDEyLTExOC45MjgtNC4yNi03Ny43NiA4Ljg0OC0xMzkuODggNDYuMzY4LTE4NS41NDggMTEwLjQyOEMyMy44NiAzNzkuNDU2IDEwLjkzNiA0NjYuOTQ0IDI2Ljc2OCA1NTguMjA0YzE2LjU4OCA5Ni4xNzIgNjQuNjk2IDE3NS44IDEzOC41ODggMjM4LjA2IDc2LjYzNiA2NC41NTIgMTY0Ljg4NCA5Ni4xNzIgMjY1LjU2NCA5MC4xMTIgNjEuMTUyLTMuNjA0IDEyOS4yMjgtMTEuOTYgMjA2LjAyOC03OC4zMTYgMTkuMzc2IDkuODI4IDM5LjcxMiAxMy43NjQgNzMuNDIgMTYuNzEyIDI1Ljk5MiAyLjQ1NiA1MC45OTYtMS4zMTIgNzAuMzQ4LTUuNDA4IDMwLjMzMi02LjU1MiAyOC4yMjQtMzUuMjI0IDE3LjI2OC00MC40NjgtODguOTA0LTQyLjI3Mi02OS4zODgtMjUuMDY4LTg3LjEyNC0zOC45OTIgNDUuMTgtNTQuNTYgMTEzLjI1Ni0xMTEuMjQ4IDEzOS44OC0yOTQuOTEyIDIuMTA4LTE0LjU4NCAwLjMyOC0yMy43NiAwLTM1LjU1Ni0wLjE2NC03LjIwOCAxLjQzMi05Ljk5MiA5LjUyNC0xMC44MTIgMjIuMjYtMi42MjQgNDMuODg4LTguODQ4IDYzLjczMi0xOS45ODggNTcuNTg4LTMyLjExNiA4MC44MzYtODQuODcyIDg2LjMyNC0xNDguMTEyIDAuODItOS42NjgtMC4xNjQtMTkuNjY0LTEwLjE4LTI0Ljc0ek00OTguMTk2IDc3NC45NmMtODYuMTQtNjkuMTQtMTI3Ljk0LTkxLjkxNi0xNDUuMi05MC45MzItMTYuMTQgMC45ODQtMTMuMjMyIDE5LjgyNC05LjY4OCAzMi4xMTIgMy43MDQgMTIuMTI0IDguNTYgMjAuNDggMTUuMzM2IDMxLjEzMiA0LjY3MiA3LjA0NCA3LjkwOCAxNy41MjgtNC42ODggMjUuMzk2LTI3Ljc1MiAxNy41MjgtNzUuOTgtNS45LTc4LjIzNi03LjA0OC01Ni4xNTYtMzMuNzUyLTEwMy4xMTYtNzguMzE2LTEzNi4xODgtMTM5LjI2NC0zMS45NTItNTguNjUyLTUwLjQ4NC0xMjEuNTY4LTUzLjU2LTE4OC43NDQtMC44MTYtMTYuMjIgMy44NzItMjEuOTUyIDE5LjY2NC0yNC45MDRhMTg5LjE2IDE4OS4xNiAwIDAgMSA2My4xLTEuNjM2Yzg3Ljk0IDEzLjEwOCAxNjIuODE2IDUzLjI0OCAyMjUuNTY0IDExNi44MTYgMzUuODIgMzYuMjA4IDYyLjkxNiA3OS40NjQgOTAuODUyIDEyMS43MzYgMjkuNjc2IDQ0Ljg5MiA2MS42MjQgODcuNjUyIDEwMi4yNzYgMTIyLjcxNiAxNC4zNTYgMTIuMjg4IDI1LjgwNCAyMS42MjQgMzYuNzggMjguNTA4LTMzLjA3MiAzLjc2OC04OC4yNjggNC41ODgtMTI2LjAxMi0yNS44ODh6IG00MS4zMDgtMjcxLjE1NmMwLTcuMjA4IDUuNjUyLTEyLjk0NCAxMi43Ni0xMi45NDQgMS42MTIgMC4wMjggMy4wNTYgMC4zIDQuMzQgMC44MmExMi43ODggMTIuNzg4IDAgMCAxIDcuNjg4IDguMjhjMC4zOCAxLjI1MiAwLjU2IDIuNTMyIDAuNTQ4IDMuODQ0YTEyLjkyIDEyLjkyIDAgMCAxLTIuMDg4IDcuMTY4IDEyLjg2OCAxMi44NjggMCAwIDEtNS43MzYgNC43NzYgMTIuOCAxMi44IDAgMCAxLTQuOTE2IDEgMTIuNzM2IDEyLjczNiAwIDAgMS00Ljg5Ni0xIDEyLjc2IDEyLjc2IDAgMCAxLTUuNjg4LTQuNzg4IDEyLjY3MiAxMi42NzIgMCAwIDEtMi4wMTItNy4xNTZ6IG0xMjguMjY4IDY3LjE3NmMtOC4yMTIgMy40NC0xNi40NDggNi4zODgtMjQuMzcyIDYuNzE2LTEyLjI0OCAwLjY1Ni0yNS42NC00LjQyNC0zMi44OTItMTAuNjQ4LTExLjMwNC05LjY2OC0xOS4zNzItMTUuMDc2LTIyLjc1Mi0zMS45NDgtMS40NTYtNy4yMTItMC42NTYtMTguMzUyIDAuNjM2LTI0Ljc0IDIuOTA4LTEzLjc2NC0wLjMyOC0yMi42MTItOS44MzItMzAuNjQtNy43NC02LjU1Mi0xNy41OTItOC4zNTYtMjguNDA0LTguMzU2LTQuMDM2IDAtNy43NDQtMS44LTEwLjQ4OC0zLjI3NmExMC41OCAxMC41OCAwIDAgMS0zLjQ5Mi0yLjY3MiAxMC41MjQgMTAuNTI0IDAgMCAxLTIuMTM2LTMuODQ0IDEwLjU2OCAxMC41NjggMCAwIDEtMC40MTItNC4zOCAxMC41MTIgMTAuNTEyIDAgMCAxIDEuMzcyLTQuMTc2YzEuMTI0LTIuMjk2IDYuNjEyLTcuODY4IDcuOTA0LTguODQ4IDE0LjY4NC04LjUyIDMxLjYyLTUuNzM2IDQ3LjI2OCAwLjY1NiAxNC41MiA2LjA2IDI1LjQ3NiAxNy4yIDQxLjMwOCAzMi45MzIgMTYuMTQgMTkuMDA0IDE5LjA0OCAyNC4yNDggMjguMjIgMzguNSA3LjI3MiAxMS4xNCAxMy44ODggMjIuNjEyIDE4LjM5MiAzNS43MTYgMi43NjQgOC4xOTItMC44IDE0LjkxMi0xMC4zMiAxOS4wMDh6Ii8+PC9zdmc+;" parent="1" vertex="1">
          <mxGeometry x="90" y="1415" width="49.24" height="36.99" as="geometry" />
        </mxCell>
        <mxCell id="lbyOYwHaOv881au3Fpvr-26" value="" style="shape=image;verticalLabelPosition=bottom;labelBackgroundColor=default;verticalAlign=top;aspect=fixed;imageAspect=0;editableCssRules=.*;image=data:image/svg+xml,PHN2ZyBoZWlnaHQ9IjIwMCIgd2lkdGg9IjIwMCIgeG1sbnM6eGxpbms9Imh0dHA6Ly93d3cudzMub3JnLzE5OTkveGxpbmsiIHhtbG5zPSJodHRwOi8vd3d3LnczLm9yZy8yMDAwL3N2ZyIgdmVyc2lvbj0iMS4xIiB2aWV3Qm94PSIwIDAgMTAyNCAxMDI0IiBjbGFzcz0iaWNvbiI+PHBhdGggZmlsbD0iIzUzQThGRiIgZD0iTTk3Mi44IDBINTEuMkMyMy4wNCAwIDAgMjMuMDQgMCA1MS4ydjkyMS42YzAgMjguMTYgMjMuMDQgNTEuMiA1MS4yIDUxLjJoOTIxLjZjMjguMTYgMCA1MS4yLTIzLjA0IDUxLjItNTEuMlY1MS4yYzAtMjguMTYtMjMuMDQtNTEuMi01MS4yLTUxLjJtMCAyNS42YzEyLjggMCAyNS42IDEwLjI0IDI1LjYgMjUuNnY5MjEuNmMwIDEyLjgtMTAuMjQgMjUuNi0yNS42IDI1LjZINTEuMmMtMTIuOCAwLTI1LjYtMTAuMjQtMjUuNi0yNS42VjUxLjJjMC0xMi44IDEwLjI0LTI1LjYgMjUuNi0yNS42aDkyMS42Ii8+PHBhdGggZmlsbD0iI0ZGN0E2MCIgZD0iTTEyOCA4MTYuNjRIOTExLjM2IDc2NS40NGwtNS4xMi0yLjU2SDc0Mi40bC01LjEyLTIuNTZoLTEyLjhsLTIuNTYtMi41Nkg3MTQuMjRsLTUuMTItMi41NmgtMi41NmwtNS4xMi0yLjU2aC0yLjU2bC01LjEyLTIuNTYtMi41Ni0yLjU2aC01LjEybC0yLjU2LTIuNTYtNS4xMi0yLjU2aC01LjEybC0yLjU2LTIuNTYtNS4xMi0yLjU2LTIuNTYtMi41Ni01LjEyLTIuNTYtMi41Ni0yLjU2LTUuMTItNS4xMi0yLjU2LTIuNTYtNS4xMi0yLjU2LTIuNTYtMi41Ni01LjEyLTUuMTItMi41Ni0yLjU2LTUuMTItNS4xMi01LjEyLTIuNTYtMi41Ni01LjEyLTUuMTItNS4xMi0yLjU2LTUuMTItNS4xMi0yLjU2LTIuNTYtNS4xMi01LjEyLTUuMTItMi41Ni01LjEyLTUuMTItNS4xMi0yLjU2LTUuMTItNS4xMi01LjEyLTIuNTYtNS4xMi01LjEyLTUuMTItMi41Ni01LjEyLTUuMTItNS4xMi01LjEyLTUuMTItMi41Ni01LjEyLTUuMTItNS4xMi0yLjU2LTUuMTItNS4xMi01LjEyLTIuNTYtMi41Ni01LjEyLTUuMTItMi41Ni01LjEyLTUuMTItMi41Ni0yLjU2LTIuNTYtNS4xMi01LjEyLTIuNTYtMi41Ni01LjEyLTIuNTYtNS4xMi0yLjU2LTIuNTYtMi41NmgtNS4xMmwtMi41Ni0yLjU2aC0yMC40OGwtMi41NiAyLjU2aC01LjEybC0yLjU2IDIuNTYtNS4xMiAyLjU2LTIuNTYgMi41Ni01LjEyIDIuNTYtNS4xMiAyLjU2LTIuNTYgMi41Ni01LjEyIDUuMTItMi41NiA1LjEyLTUuMTIgMi41Ni0yLjU2IDUuMTItNS4xMiA1LjEyLTIuNTYgNS4xMi01LjEyIDUuMTItMi41NiA1LjEyLTUuMTIgNS4xMi0yLjU2IDUuMTItNS4xMiA1LjEyLTUuMTIgNS4xMi0yLjU2IDcuNjgtNS4xMiA1LjEyLTIuNTYgNS4xMi01LjEyIDUuMTItMi41NiA1LjEyLTUuMTIgNS4xMi0yLjU2IDUuMTItNS4xMiA1LjEyLTIuNTYgNS4xMi01LjEyIDUuMTItMi41NiAyLjU2LTUuMTIgNS4xMi0yLjU2IDUuMTItNS4xMiAyLjU2LTUuMTIgNS4xMi0yLjU2IDIuNTYtNS4xMiAyLjU2LTIuNTYgMi41Ni01LjEyIDUuMTItMi41NiAyLjU2LTUuMTIgMi41Ni0yLjU2IDIuNTYtNS4xMiAyLjU2aC0yLjU2bC01LjEyIDIuNTYtMi41NiAyLjU2LTUuMTIgMi41NmgtNS4xMmwtMi41NiAyLjU2aC01LjEybC0yLjU2IDIuNTZIMjczLjkybC01LjEyIDIuNTZIMjYxLjEybC0yLjU2IDIuNTZoLTE1LjM2bC01LjEyIDIuNTZIMTMzLjEyeiIvPjxwYXRoIGZpbGw9IiNGMzUyMzIiIGQ9Ik05MTEuMzYgODI0LjMySDEyOHYtMTIuOGwxNDAuOC03LjY4IDMwLjcyLTEwLjI0IDIzLjA0LTEyLjggMjMuMDQtMTcuOTIgMzAuNzItMzUuODQgNjYuNTYtODcuMDQgMTUuMzYtMTUuMzYgMTIuOC03LjY4IDcuNjgtMi41NmgyMC40OGwxMC4yNCAyLjU2IDEyLjggNy42OCAxMi44IDEwLjI0IDI1LjYgMjUuNiA4Ny4wNCAxMDIuNCAzMC43MiAyMy4wNCAzMC43MiAxMi44IDQ2LjA4IDEwLjI0IDE2MS4yOCAyLjU2djEyLjh6IG0tNjE5LjUyLTEyLjhoNDEyLjE2bC0yOC4xNi0xMC4yNC0yOC4xNi0xNy45Mi0yOC4xNi0yNS42LTk5Ljg0LTExNy43Ni0xNS4zNi0xMC4yNC0xMC4yNC0yLjU2SDQ4Ni40bC0xMC4yNCAyLjU2LTEwLjI0IDUuMTItMTUuMzYgMTAuMjQtMjMuMDQgMjUuNi03OS4zNiA5OS44NC0yNS42IDIwLjQ4LTI1LjYgMTIuOC01LjEyIDcuNjh6Ii8+PHBhdGggZmlsbD0iIzNEQTVGQiIgZD0iTTEyOCA4MTYuNjRoMjguMTZsMi41Ni0yLjU2SDIzOC4wOGw1LjEyLTIuNTZIMjU4LjU2bDIuNTYtMi41NmgxMi44bDIuNTYtMi41Nmg1LjEybDIuNTYtMi41Nmg1LjEybDIuNTYtMi41Nmg1LjEybDUuMTItMi41NiAyLjU2LTIuNTZoNS4xMmwyLjU2LTIuNTYgNS4xMi0yLjU2IDIuNTYtMi41NiA1LjEyLTIuNTYgMi41Ni0yLjU2IDUuMTItMi41NiAyLjU2LTUuMTIgNS4xMi0yLjU2IDIuNTYtMi41NiA1LjEyLTUuMTIgNS4xMi0yLjU2IDIuNTYtNS4xMiA1LjEyLTUuMTIgMi41Ni0yLjU2IDUuMTItNS4xMiAyLjU2LTUuMTIgNS4xMi01LjEyIDIuNTYtNS4xMiA1LjEyLTUuMTIgMi41Ni01LjEyIDUuMTItNS4xMiAyLjU2LTUuMTIgNS4xMi01LjEyIDIuNTYtNy42OCA1LjEyLTUuMTIgNS4xMi01LjEyIDIuNTYtNS4xMiA1LjEyLTUuMTIgMi41Ni01LjEyIDUuMTItNS4xMiAyLjU2LTUuMTIgNS4xMi01LjEyIDIuNTYtNS4xMiA1LjEyLTIuNTYgMi41Ni01LjEyIDUuMTItMi41NiAyLjU2LTUuMTIgNS4xMi0yLjU2IDUuMTItMi41NiAyLjU2LTIuNTYgNS4xMi0yLjU2IDIuNTYtMi41Nmg1LjEybDIuNTYtMi41NmgyMC40OGwyLjU2IDIuNTZoNS4xMmwyLjU2IDIuNTYgNS4xMiAyLjU2IDUuMTIgMi41NiAyLjU2IDIuNTYgNS4xMiA1LjEyIDIuNTYgMi41NiA1LjEyIDUuMTIgMi41NiAyLjU2IDUuMTIgNS4xMiAyLjU2IDUuMTIgNS4xMiAyLjU2IDIuNTYgNS4xMiA1LjEyIDUuMTIgMi41NiA1LjEyIDUuMTIgNS4xMiA1LjEyIDUuMTIgMi41NiA1LjEyIDUuMTIgNS4xMiAyLjU2IDUuMTIgNS4xMiA1LjEyIDIuNTYgNS4xMiA1LjEyIDUuMTIgMi41NiA1LjEyIDUuMTIgNS4xMiAyLjU2IDUuMTIgNS4xMiAyLjU2IDIuNTYgNS4xMiA1LjEyIDUuMTIgMi41NiA1LjEyIDUuMTIgMi41NiA1LjEyIDUuMTIgMi41NiAyLjU2IDUuMTIgNS4xMiAyLjU2IDIuNTYgNS4xMiAyLjU2IDIuNTYgMi41NiA1LjEyIDUuMTIgMi41NiAyLjU2IDUuMTIgMi41NiAyLjU2IDIuNTYgNS4xMiAyLjU2IDIuNTYgMi41Nmg1LjEybDUuMTIgMi41NiAyLjU2IDIuNTYgNS4xMiAyLjU2aDIuNTZsNS4xMiAyLjU2aDIuNTZsNS4xMiAyLjU2aDIuNTZsNS4xMiAyLjU2SDcyMS45MmwyLjU2IDIuNTZoMTIuOGw1LjEyIDIuNTZINzU3Ljc2bDIuNTYgMi41Nkg4NTIuNDhsMi41NiAyLjU2SDkxMS4zNmgtNTYuMzJsLTIuNTYtMi41Nkg3NjhsLTIuNTYtMi41NmgtMjAuNDhsLTIuNTYtMi41NmgtMTAuMjRsLTIuNTYtMi41NmgtNS4xMmwtMi41Ni0yLjU2SDcxNi44bC0yLjU2LTIuNTZoLTUuMTJsLTIuNTYtMi41Ni01LjEyLTIuNTYtMi41Ni0yLjU2LTUuMTItMi41Ni0yLjU2LTIuNTYtNS4xMi0yLjU2LTIuNTYtMi41Ni01LjEyLTIuNTYtNS4xMi01LjEyLTIuNTYtMi41Ni01LjEyLTUuMTItMi41Ni01LjEyLTUuMTItNS4xMi0yLjU2LTUuMTItNS4xMi03LjY4LTIuNTYtNS4xMi01LjEyLTcuNjgtMi41Ni03LjY4LTUuMTItNy42OC0yLjU2LTcuNjgtNS4xMi0xMC4yNC01LjEyLTEwLjI0LTIuNTYtMTAuMjQtNS4xMi0xMC4yNC0yLjU2LTEyLjgtNS4xMi0xMi44LTIuNTYtMTIuOC01LjEyLTEyLjgtMi41Ni0xNS4zNi01LjEyLTE1LjM2LTIuNTYtMTUuMzYtNS4xMi0xNS4zNi0yLjU2LTE3LjkyLTUuMTItMTcuOTItMi41Ni0xNS4zNi01LjEyLTE3LjkyLTUuMTItMjAuNDgtMi41Ni0xNy45Mi01LjEyLTE3LjkyLTIuNTYtMjAuNDgtNS4xMi0xNy45Mi0yLjU2LTE3LjkyLTUuMTItMTcuOTItMi41Ni0xNy45Mi01LjEyLTE3LjkyLTIuNTYtMTUuMzYtNS4xMi0xNS4zNi0yLjU2LTE1LjM2LTUuMTItMTIuOC01LjEyLTEyLjgtMi41Ni0xMC4yNC01LjEyLTEwLjI0LTIuNTYtNy42OC01LjEyLTcuNjgtMi41Ni0yLjU2LTUuMTItNS4xMkg0ODEuMjhsLTIuNTYgMi41Ni01LjEyIDUuMTItMi41NiA1LjEyLTUuMTIgNy42OC0yLjU2IDEwLjI0LTUuMTIgMTAuMjQtNS4xMiAxMi44LTIuNTYgMTUuMzYtNS4xMiAxNS4zNi0yLjU2IDE1LjM2LTUuMTIgMTcuOTItMi41NiAxNy45Mi01LjEyIDIwLjQ4LTIuNTYgMTcuOTItNS4xMiAyMC40OC0yLjU2IDIwLjQ4LTUuMTIgMjAuNDgtMi41NiAyMC40OC01LjEyIDIwLjQ4LTUuMTIgMjAuNDgtMi41NiAyMC40OC01LjEyIDE3LjkyLTIuNTYgMjAuNDgtNS4xMiAxNy45Mi0yLjU2IDE3LjkyLTUuMTIgMTUuMzYtMi41NiAxNy45Mi01LjEyIDE1LjM2LTIuNTYgMTIuOC01LjEyIDE1LjM2LTIuNTYgMTAuMjQtNS4xMiAxMi44LTIuNTYgMTAuMjQtNS4xMiAxMi44LTUuMTIgNy42OC0yLjU2IDEwLjI0LTUuMTIgNy42OC0yLjU2IDcuNjgtNS4xMiA1LjEyLTIuNTYgNy42OC01LjEyIDUuMTItMi41NiA1LjEyLTUuMTIgNS4xMi0yLjU2IDIuNTYtNS4xMiA1LjEyLTIuNTYgMi41Ni01LjEyIDIuNTYtNS4xMiAyLjU2LTIuNTYgMi41Ni01LjEyIDIuNTYtMi41NiAyLjU2aC01LjEybC0yLjU2IDIuNTZoLTUuMTJsLTIuNTYgMi41NkgyNTguNTZsLTUuMTIgMi41NkgyMzguMDhsLTUuMTIgMi41NkgxNTguNzJsLTIuNTYgMi41NmgtMjMuMDR6Ii8+PHBhdGggZmlsbD0iIzE5N0ZEMyIgZD0iTTkxMS4zNiA4MjEuNzZsLTE4Ni44OC03LjY4LTMzLjI4LTcuNjgtMjguMTYtMTUuMzYtMjUuNi0xNy45Mi0zMy4yOC0zMy4yOC04MS45Mi05OS44NC0xNS4zNi0xMC4yNC0xMC4yNC01LjEySDQ4Ni40bC0xMC4yNCAyLjU2LTEwLjI0IDUuMTItMTUuMzYgMTAuMjQtMjMuMDQgMjUuNi03OS4zNiA5OS44NC0yNS42IDIwLjQ4LTI1LjYgMTIuOC0zMy4yOCAxMC4yNC0xMzUuNjggMTAuMjR2LTEyLjhsMTI4LTUuMTIgMjMuMDQtNy42OCAxNS4zNi03LjY4IDEwLjI0LTEwLjI0IDEwLjI0LTEyLjggMTAuMjQtMTcuOTIgMTAuMjQtMjMuMDQgMTIuOC0zMC43MiAxNS4zNi01MS4yIDIwLjQ4LTg0LjQ4IDU4Ljg4LTI4Ni43MiAxMi44LTM4LjQgNy42OC0xNy45MiA1LjEyLTcuNjggNS4xMi01LjEyIDUuMTItMi41Nmg1LjEybDcuNjggMi41NiA1LjEyIDIuNTYgNS4xMiA1LjEyIDUuMTIgNy42OCA3LjY4IDE3LjkyIDcuNjggMjMuMDQgMTUuMzYgNjEuNDQgNzEuNjggMzA5Ljc2IDIwLjQ4IDU4Ljg4IDE1LjM2IDM1Ljg0IDE1LjM2IDI1LjYgMTUuMzYgMjAuNDggMTcuOTIgMTUuMzYgMTcuOTIgMTAuMjQgMzAuNzIgNy42OCAxNjguOTYgNS4xMnYxMi44ek00ODEuMjggMjEyLjQ4bC0yLjU2IDIuNTYtNy42OCAxNS4zNi03LjY4IDIwLjQ4LTEyLjggNDAuOTYtMjAuNDggODkuNi01MS4yIDI0OC4zMi0xNS4zNiA1Ni4zMi0xNS4zNiA0My41Mi0xMi44IDI1LjYtMTIuOCAxNy45Mi01LjEyIDUuMTIgMjMuMDQtMTcuOTIgMzAuNzItMzUuODQgNjYuNTYtODcuMDQgMTUuMzYtMTUuMzYgMTIuOC03LjY4IDcuNjgtMi41NmgyMC40OGwxMC4yNCAyLjU2IDEyLjggNy42OCAxNy45MiAxMi44TDU2My4yIDY2NS42bDc0LjI0IDg5LjYgMjguMTYgMjMuMDQtNy42OC0xMC4yNC0xMi44LTE3LjkyLTEyLjgtMjAuNDgtMTUuMzYtMzguNC0xNS4zNi00Ni4wOC0yMC40OC03MS42OEw1MTIgMjYzLjY4bC03LjY4LTIzLjA0LTcuNjgtMTcuOTItMi41Ni01LjEyLTcuNjgtNS4xMmgtNS4xMnoiLz48L3N2Zz4=;imageBackground=default;imageBorder=none;" parent="1" vertex="1">
          <mxGeometry x="320" y="1320.01" width="29.99" height="29.99" as="geometry" />
        </mxCell>
        <mxCell id="lbyOYwHaOv881au3Fpvr-27" value="&lt;b&gt;概率分布蒸馏&lt;/b&gt;" style="text;html=1;align=center;verticalAlign=middle;whiteSpace=wrap;rounded=0;" parent="1" vertex="1">
          <mxGeometry x="349.99" y="1310" width="95" height="50" as="geometry" />
        </mxCell>
        <mxCell id="lbyOYwHaOv881au3Fpvr-28" value="" style="shape=image;verticalLabelPosition=bottom;labelBackgroundColor=default;verticalAlign=top;aspect=fixed;imageAspect=0;editableCssRules=.*;image=data:image/svg+xml,PHN2ZyBoZWlnaHQ9IjE4MS40MDYyMzU2OTQ4ODUyNSIgd2lkdGg9IjE2OC44MTI1MDE0MzA1MTE0NyIgeG1sbnM6eGxpbms9Imh0dHA6Ly93d3cudzMub3JnLzE5OTkveGxpbmsiIHhtbG5zPSJodHRwOi8vd3d3LnczLm9yZy8yMDAwL3N2ZyIgdmVyc2lvbj0iMS4xIiB2aWV3Qm94PSI5Ni44NDk5OTg0NzQxMjExIDMwLjM4OTk5OTM4OTY0ODQzOCA4NjQuMzIwMDA3MzI0MjE4OCA5MjguNzk5OTI2NzU3ODEyNSIgY2xhc3M9Imljb24iPjxwYXRoIGZpbGw9IiMzMzMzMzMiIGQ9Ik03MjguOSA2MjYuMTRjMjEuNjQtNy41OCAzOS0xNS43NyA1Mi43NC0yNC4yMWExNDcuNTMgMTQ3LjUzIDAgMCAwIDI1LjI5LTE5LjE3YzE5LjcxLTE5IDI1LjI5LTM4IDI1LjI5LTUzLjV2LTg2LjUyYTIwOC41NyAyMDguNTcgMCAwIDEtMjQuMTQgMTcuMTRjLTE3LjU1IDEwLjc2LTM4LjU3IDIwLjQ1LTYyLjQ3IDI4LjgyLTYzLjU0IDIyLjMtMTQ2LjUgMzQuNTEtMjMzLjYxIDM0LjUxUzM0MS45MyA1MTEgMjc4LjM4IDQ4OC43cS0xNy45Mi02LjI2LTMzLjYtMTMuNTFhMjc3LjQ3IDI3Ny40NyAwIDAgMS0yOC44NS0xNS4zMSAyMDcuNTUgMjA3LjU1IDAgMCAxLTI0LjE1LTE3LjE1djg2LjUzYzAgMTUuNDUgNS41OCAzNC40OSAyNS4yOSA1My41YTE0Ny40MSAxNDcuNDEgMCAwIDAgMjUuMjkgMTkuMTdjMTMuNzkgOC40NCAzMS4wOSAxNi42MyA1Mi43MyAyNC4yMSA1OC4zMyAyMC40MSAxMzUuMzYgMzEuNjUgMjE2LjkxIDMxLjY1czE1OC41OC0xMS4yNCAyMTYuOS0zMS42NXpNMjE3LjA3IDM5Ny41OGExNDYuOTEgMTQ2LjkxIDAgMCAwIDI1LjI5IDE5LjE4YzEzLjc5IDguNDUgMzEuMDkgMTYuNjMgNTIuNzMgMjQuMiA1OC4zMyAyMC40MyAxMzUuMzYgMzEuNjcgMjE2LjkxIDMxLjY3UzY3MC41OCA0NjEuMzkgNzI4LjkgNDQxYzIxLjY0LTcuNTcgMzktMTUuNzUgNTIuNzQtMjQuMmExNDYuNTIgMTQ2LjUyIDAgMCAwIDI1LjI5LTE5LjE4YzE5LjcxLTE5IDI1LjI5LTM4LjA1IDI1LjI5LTUzLjQ5di04Ni41NWEyMDguNTIgMjA4LjUyIDAgMCAxLTI0LjE0IDE3LjEzYy0xNy41NSAxMC43Ni0zOC41NyAyMC40Ni02Mi40NyAyOC44MkM2ODIuMDYgMzI1Ljc4IDU5OS4wOSAzMzggNTEyIDMzOHMtMTcwLjA2LTEyLjI1LTIzMy42Mi0zNC41cS0xNy45Mi02LjI1LTMzLjYtMTMuNWEyNzUuNTggMjc1LjU4IDAgMCAxLTI4Ljg1LTE1LjMyIDIwOC42NiAyMDguNjYgMCAwIDEtMjQuMTUtMTcuMTN2ODYuNTFjMCAxNS40NyA1LjU4IDM0LjUxIDI1LjI5IDUzLjUyeiBtMC0xODUuMTZhMTQ3LjQyIDE0Ny40MiAwIDAgMCAyNS4yOSAxOS4xOGMxMy43OSA4LjQ1IDMxLjA5IDE2LjYyIDUyLjczIDI0LjIgNTguMzMgMjAuNDEgMTM1LjM2IDMxLjY1IDIxNi45MSAzMS42NXMxNTguNTgtMTEuMjQgMjE2LjktMzEuNjVjMjEuNjQtNy41OCAzOS0xNS43NSA1Mi43NC0yNC4yYTE0NyAxNDcgMCAwIDAgMjUuMjktMTkuMThjMTkuNzEtMTkgMjUuMjktMzggMjUuMjktNTMuNXMtNS41OC0zNC40OC0yNS4yOS01My40OWExNDcgMTQ3IDAgMCAwLTI1LjI5LTE5LjE4Yy0xMy43OC04LjQ0LTMxLjEtMTYuNjMtNTIuNzQtMjQuMkM2NzAuNTggNDEuNjQgNTkzLjU1IDMwLjM5IDUxMiAzMC4zOVMzNTMuNDIgNDEuNjQgMjk1LjA5IDYyLjA1Yy0yMS42NCA3LjU3LTM4Ljk0IDE1Ljc2LTUyLjczIDI0LjJhMTQ2LjkxIDE0Ni45MSAwIDAgMC0yNS4yOSAxOS4xOGMtMTkuNzEgMTktMjUuMjkgMzgtMjUuMjkgNTMuNDlzNS41OCAzNC40OSAyNS4yOSA1My41eiBtNTE0IDQ4My43N0g1MzcuMTN2NTcuNjJoNjQuNjR2MjA1LjM3aDY0LjY0Vjc1My44MWg2NC42NHogbS00NjUuNzkgMjUuODZjLTE4LjEtMTguMS00My41OS0yNS44Ni03MC45Mi0yNS44Nkg5Ni44NXYyNjNoOTcuNTFjMjcuMzMgMCA1Mi44Mi03Ljc1IDcwLjkyLTI1Ljg1IDMwLjY2LTMwLjY2IDI3LjMzLTY0LjI3IDI3LjMzLTEwNS42NHMzLjMzLTc1LTI3LjMzLTEwNS42NXpNMjIxIDg4Ni43OWMtNS45MSA4Ljg2LTE0Ljc4IDE0Ljc3LTMxIDE0Ljc3aC0yOC41MVY3NTMuODFoMjguNDRjMTYuMjUgMCAyNS4xMiA1LjkxIDMxIDE0Ljc4IDUuMTcgNy4zOCA3IDE0Ljc3IDcgNTkuMSAwLjA3IDQ0LjY5LTEuOCA1MS43MS02LjkzIDU5LjF6IG0xODEuNzItMTkwLjZMMzA3IDk1OS4xOGg2Ny41OUwzODcuNTQgOTIwaDgwLjg5bDEyLjE5IDM5LjE1aDY3LjU5bC05NS42Ni0yNjN6IG0zIDE2OS45MWwyMy42NC03MC4xOCAyMi4xNiA3MC4xOHpNODY1LjUgNjk2LjE5aC00OS44Nkw3MjAgOTU5LjE4aDY3LjZMODAwLjQ5IDkyMGg4MC45bDEyLjE4IDM5LjE1aDY3LjZ6TTgxOC41OSA4NjYuMWwyMy42NC03MC4xOCAyMi4xNiA3MC4xOHoiLz48L3N2Zz4=;" parent="1" vertex="1">
          <mxGeometry x="322.31" y="1264.8899999999999" width="25.37" height="27.17" as="geometry" />
        </mxCell>
        <mxCell id="lbyOYwHaOv881au3Fpvr-30" value="&lt;b&gt;&lt;font style=&quot;font-size: 13px;&quot;&gt;数据蒸馏&lt;/font&gt;&lt;/b&gt;" style="text;html=1;align=center;verticalAlign=middle;whiteSpace=wrap;rounded=0;" parent="1" vertex="1">
          <mxGeometry x="360" y="1263.47" width="60" height="30" as="geometry" />
        </mxCell>
        <mxCell id="lbyOYwHaOv881au3Fpvr-31" value="" style="shape=image;verticalLabelPosition=bottom;labelBackgroundColor=default;verticalAlign=top;aspect=fixed;imageAspect=0;editableCssRules=.*;image=data:image/svg+xml,PHN2ZyBoZWlnaHQ9IjE2Mi4wMDAwMDA0NzY4MzcxNiIgd2lkdGg9IjE0NS44MDAwMDYzODk2MTc5MiIgeG1sbnM6eGxpbms9Imh0dHA6Ly93d3cudzMub3JnLzE5OTkveGxpbmsiIHhtbG5zPSJodHRwOi8vd3d3LnczLm9yZy8yMDAwL3N2ZyIgdmVyc2lvbj0iMS4xIiB2aWV3Qm94PSIxMzQuMTQzOTk3MTkyMzgyOCA3NC42NDk1OTcxNjc5Njg3NSA3NDYuNDk2MDMyNzE0ODQzOCA4MjkuNDQwMDAyNDQxNDA2MiIgY2xhc3M9Imljb24iPjxwYXRoIGZpbGw9IiMxMjZFRTMiIGQ9Ik02ODIuMjkxMiAzNDUuOTA3MmwxNjEuNzkyLTk5LjEyMzJoLTUuMjIyNEw1NTEuNzgyNCA4NS4wOTQ0Yy0xNS42NjcyLTUuMjIyNC0zMS4zMzQ0LTEwLjQ0NDgtNDcuMDAxNi0xMC40NDQ4LTE1LjY2NzIgMC0zMS4zMzQ0IDUuMjIyNC00Ny4wMDE2IDEwLjQ0NDhMMTgxLjE0NTYgMjQ2Ljc4NGwxNjEuNzkyIDk5LjEyMzJoMzM5LjM1MzZ6TTcxMy41NzQ0IDQyOS40MTQ0bC0xNjcuMDE0NCAyNjYuMDM1MnYyMDguNjRoNS4yMjI0bDI4MS44NTYtMTYxLjY4OTZjMjYuMTEyLTE1LjY2NzIgNDcuMDAxNi01Mi4yMjQgNDcuMDAxNi03OC4yODQ4VjMyNS4xMmwtMTY3LjA2NTYgMTA0LjM0NTZ6Ii8+PHBhdGggZmlsbC1vcGFjaXR5PSIuMjUiIGZpbGw9IiMxMjZFRTMiIGQ9Ik02MDkuMTc3NiA0MjkuNDE0NEg0MDUuNjA2NGw5OS4xNzQ0IDE3Mi4xMzQ0eiIvPjxwYXRoIGZpbGw9IiMxMjZFRTMiIGQ9Ik00NjMuMDAxNiA2OTUuNDQ5NmwtMTYxLjc5Mi0yNzYuNDhMMTM0LjE0NCAzMTQuNjI0djMzMy44MjRjMCAzMS4zMzQ0IDIwLjg4OTYgNjcuODQgNDcuMDAxNiA3OC4zMzZsMjgxLjg1NiAxNjEuNjg5Nmg1LjIyMjR2LTE5My4wMjRoLTUuMjIyNHoiLz48L3N2Zz4=;" parent="1" vertex="1">
          <mxGeometry x="596.97" y="1410" width="36.05" height="40" as="geometry" />
        </mxCell>
        <mxCell id="lbyOYwHaOv881au3Fpvr-32" value="&lt;b&gt;蒸馏后的参数更小的模型（例如:DeepSeek-70B-distill)&lt;/b&gt;" style="text;whiteSpace=wrap;html=1;" parent="1" vertex="1">
          <mxGeometry x="550" y="1356.94" width="160" height="40" as="geometry" />
        </mxCell>
      </root>
    </mxGraphModel>
  </diagram>
</mxfile>
